<mxfile host="app.diagrams.net" modified="2021-08-10T06:46:51.150Z" agent="5.0 (Macintosh; Intel Mac OS X 10_15_7) AppleWebKit/537.36 (KHTML, like Gecko) Chrome/92.0.4515.131 Safari/537.36" etag="ZPGNTpHGGDWlG0OnWHaQ" version="14.9.1" type="github">
  <diagram id="ie83hSLUdR4QXg75cFkv" name="Page-1">
    <mxGraphModel dx="1426" dy="696" grid="1" gridSize="10" guides="1" tooltips="1" connect="1" arrows="1" fold="1" page="1" pageScale="1" pageWidth="827" pageHeight="1169" math="0" shadow="0">
      <root>
        <mxCell id="0" />
        <mxCell id="1" parent="0" />
        <mxCell id="7TU7r8OnFruRop1YrXEI-14" value="" style="edgeStyle=orthogonalEdgeStyle;rounded=0;orthogonalLoop=1;jettySize=auto;html=1;" edge="1" parent="1" source="7TU7r8OnFruRop1YrXEI-1" target="7TU7r8OnFruRop1YrXEI-10">
          <mxGeometry relative="1" as="geometry" />
        </mxCell>
        <mxCell id="7TU7r8OnFruRop1YrXEI-1" value="特殊资源位过滤" style="rounded=0;whiteSpace=wrap;html=1;" vertex="1" parent="1">
          <mxGeometry x="340" y="340" width="120" height="60" as="geometry" />
        </mxCell>
        <mxCell id="7TU7r8OnFruRop1YrXEI-8" style="edgeStyle=orthogonalEdgeStyle;rounded=0;orthogonalLoop=1;jettySize=auto;html=1;exitX=0;exitY=0.5;exitDx=0;exitDy=0;entryX=1;entryY=0.5;entryDx=0;entryDy=0;" edge="1" parent="1" source="7TU7r8OnFruRop1YrXEI-2" target="7TU7r8OnFruRop1YrXEI-1">
          <mxGeometry relative="1" as="geometry">
            <Array as="points">
              <mxPoint x="520" y="290" />
              <mxPoint x="520" y="370" />
            </Array>
          </mxGeometry>
        </mxCell>
        <mxCell id="7TU7r8OnFruRop1YrXEI-2" value="优惠券禁用过滤规则" style="rounded=0;whiteSpace=wrap;html=1;" vertex="1" parent="1">
          <mxGeometry x="570" y="260" width="120" height="60" as="geometry" />
        </mxCell>
        <mxCell id="7TU7r8OnFruRop1YrXEI-9" style="edgeStyle=orthogonalEdgeStyle;rounded=0;orthogonalLoop=1;jettySize=auto;html=1;" edge="1" parent="1" source="7TU7r8OnFruRop1YrXEI-3">
          <mxGeometry relative="1" as="geometry">
            <mxPoint x="460" y="370" as="targetPoint" />
            <Array as="points">
              <mxPoint x="520" y="430" />
              <mxPoint x="520" y="370" />
            </Array>
          </mxGeometry>
        </mxCell>
        <mxCell id="7TU7r8OnFruRop1YrXEI-3" value="风控禁用过滤规则" style="rounded=0;whiteSpace=wrap;html=1;" vertex="1" parent="1">
          <mxGeometry x="570" y="400" width="120" height="60" as="geometry" />
        </mxCell>
        <mxCell id="7TU7r8OnFruRop1YrXEI-6" value="" style="edgeStyle=orthogonalEdgeStyle;rounded=0;orthogonalLoop=1;jettySize=auto;html=1;" edge="1" parent="1" source="7TU7r8OnFruRop1YrXEI-4" target="7TU7r8OnFruRop1YrXEI-2">
          <mxGeometry relative="1" as="geometry" />
        </mxCell>
        <mxCell id="7TU7r8OnFruRop1YrXEI-4" value="优惠券接口" style="rounded=0;whiteSpace=wrap;html=1;" vertex="1" parent="1">
          <mxGeometry x="780" y="260" width="120" height="60" as="geometry" />
        </mxCell>
        <mxCell id="7TU7r8OnFruRop1YrXEI-7" value="" style="edgeStyle=orthogonalEdgeStyle;rounded=0;orthogonalLoop=1;jettySize=auto;html=1;" edge="1" parent="1" source="7TU7r8OnFruRop1YrXEI-5" target="7TU7r8OnFruRop1YrXEI-3">
          <mxGeometry relative="1" as="geometry" />
        </mxCell>
        <mxCell id="7TU7r8OnFruRop1YrXEI-5" value="leo配置" style="rounded=0;whiteSpace=wrap;html=1;" vertex="1" parent="1">
          <mxGeometry x="780" y="400" width="120" height="60" as="geometry" />
        </mxCell>
        <mxCell id="7TU7r8OnFruRop1YrXEI-10" value="商品过滤" style="rounded=0;whiteSpace=wrap;html=1;" vertex="1" parent="1">
          <mxGeometry x="140" y="340" width="120" height="60" as="geometry" />
        </mxCell>
        <mxCell id="7TU7r8OnFruRop1YrXEI-13" style="edgeStyle=orthogonalEdgeStyle;rounded=0;orthogonalLoop=1;jettySize=auto;html=1;entryX=1;entryY=0.5;entryDx=0;entryDy=0;" edge="1" parent="1" source="7TU7r8OnFruRop1YrXEI-11" target="7TU7r8OnFruRop1YrXEI-10">
          <mxGeometry relative="1" as="geometry" />
        </mxCell>
        <mxCell id="7TU7r8OnFruRop1YrXEI-11" value="XXX过滤" style="rounded=0;whiteSpace=wrap;html=1;" vertex="1" parent="1">
          <mxGeometry x="340" y="220" width="120" height="60" as="geometry" />
        </mxCell>
        <mxCell id="7TU7r8OnFruRop1YrXEI-15" style="edgeStyle=orthogonalEdgeStyle;rounded=0;orthogonalLoop=1;jettySize=auto;html=1;exitX=0;exitY=0.5;exitDx=0;exitDy=0;" edge="1" parent="1" source="7TU7r8OnFruRop1YrXEI-12">
          <mxGeometry relative="1" as="geometry">
            <mxPoint x="260" y="370" as="targetPoint" />
            <Array as="points">
              <mxPoint x="300" y="510" />
              <mxPoint x="300" y="370" />
            </Array>
          </mxGeometry>
        </mxCell>
        <mxCell id="7TU7r8OnFruRop1YrXEI-12" value="XXX过滤" style="rounded=0;whiteSpace=wrap;html=1;" vertex="1" parent="1">
          <mxGeometry x="340" y="480" width="120" height="60" as="geometry" />
        </mxCell>
      </root>
    </mxGraphModel>
  </diagram>
</mxfile>
